<?xml version="1.0" encoding="utf-8"?>
<!-- Generator: Adobe Illustrator 17.0.0, SVG Export Plug-In . SVG Version: 6.00 Build 0)  -->
<!DOCTYPE svg PUBLIC "-//W3C//DTD SVG 1.1 Basic//EN" "http://www.w3.org/Graphics/SVG/1.1/DTD/svg11-basic.dtd">
<svg version="1.1" baseProfile="basic" id="图层_1"
	 xmlns="http://www.w3.org/2000/svg" xmlns:xlink="http://www.w3.org/1999/xlink" x="0px" y="0px" width="32px" height="32px"
	 viewBox="0 0 32 32" xml:space="preserve">
<path fill="#33BBEE" stroke="#454545" stroke-miterlimit="10" d="M27.932,26.712c-3.322-2.689-10.624-3.703-10.624-3.703
	l0.018-2.098c1.92-1.554,4.733-4.49,5.917-7.284c1.483-3.502-0.58-3.596-0.58-3.596c1.751-12.398-12.1-9.127-12.1-9.127
	C9.116,0.591,8.374,1.536,8.374,1.536C9.25,2.22,8.926,3.533,8.926,3.533C6.965,5.311,7.784,9.988,7.784,9.988
	c-1.6,1.056-0.676,3.398-0.676,3.398c0.714,2.823,5.225,7.496,5.225,7.496l-0.006,2.098c-3.635,0.362-10.82,2.743-11.811,5.708
	v2.829l22.616-0.025C23.221,29.074,24.818,26.727,27.932,26.712z"/>
<path fill="#33BBEE" stroke="#464646" stroke-miterlimit="10" d="M23.422,31.375c9.373-3.456,9.945-13.113,5.417-14.746
	c-3.412-1.231-5.149,1.065-5.537,1.787c-0.388-0.722-2.125-3.017-5.538-1.787c-4.527,1.632-3.956,11.289,5.415,14.746l0.121,0.04
	L23.422,31.375z"/>
</svg>
