<?xml version="1.0" encoding="utf-8"?>
<!-- Generator: Adobe Illustrator 17.0.0, SVG Export Plug-In . SVG Version: 6.00 Build 0)  -->
<!DOCTYPE svg PUBLIC "-//W3C//DTD SVG 1.1 Basic//EN" "http://www.w3.org/Graphics/SVG/1.1/DTD/svg11-basic.dtd">
<svg version="1.1" baseProfile="basic" id="图层_1"
	 xmlns="http://www.w3.org/2000/svg" xmlns:xlink="http://www.w3.org/1999/xlink" x="0px" y="0px" width="32px" height="32px"
	 viewBox="0 0 32 32" xml:space="preserve">
<path fill="#33BBEE" stroke="#454545" stroke-miterlimit="10" d="M14.725,1.794c0,0,0.59-0.845,1.738-0.564
	c0,0,10.999-2.929,9.609,8.168c0,0,1.639,0.084,0.46,3.219c-0.94,2.501-3.175,5.128-4.699,6.519l-0.014,1.879
	c0,0,7.778,1.337,9.697,5.203V28.6L8.486,28.627v-2.529c0-1.991,3.906-4.725,6.793-5.047l0.005-1.878c0,0-0.996-4.244-1.563-6.771
	c0,0-0.733-2.096,0.537-3.042c0,0-0.651-4.185,0.907-5.776C15.164,3.583,15.422,2.408,14.725,1.794z"/>
<path fill="#33BBEE" stroke="#454545" stroke-miterlimit="10" d="M7.44,1.422c0,0,0.664-0.95,1.955-0.634
	c0,0,12.372-3.295,10.808,9.188c0,0,1.844,0.094,0.517,3.621c-1.058,2.813-3.571,5.768-5.285,7.333l-0.016,2.114
	c0,0,9.949,1.507,10.908,5.852v2.678L0.422,31.605V28.76c0.886-2.987,7.303-5.385,10.55-5.748l0.006-2.113
	c0,0-4.03-4.703-4.668-7.546c0,0-0.825-2.357,0.604-3.421c0,0-0.732-4.708,1.02-6.497C7.934,3.435,8.224,2.112,7.44,1.422z"/>
</svg>
