<?xml version="1.0" encoding="utf-8"?>
<!-- Generator: Adobe Illustrator 17.0.0, SVG Export Plug-In . SVG Version: 6.00 Build 0)  -->
<!DOCTYPE svg PUBLIC "-//W3C//DTD SVG 1.1 Basic//EN" "http://www.w3.org/Graphics/SVG/1.1/DTD/svg11-basic.dtd">
<svg version="1.1" baseProfile="basic" id="Layer_1"
	 xmlns="http://www.w3.org/2000/svg" xmlns:xlink="http://www.w3.org/1999/xlink" x="0px" y="0px" width="32px" height="32px"
	 viewBox="0 0 32 32" xml:space="preserve">
<path fill="#33BBEE" stroke="#464646" stroke-miterlimit="10" d="M5.871,1.771c0,0,0.514-0.846,1.514-0.564
	c0,0,9.577-2.932,8.367,8.175c0,0,1.427,0.084,0.4,3.222c-0.819,2.503-0.562,5.362-1.89,6.754l-0.012,1.881
	c0,0,5.5,1.111,6.242,4.978V28.6L0.438,28.627v-2.044c0.396-1.929,4.229-4.5,8.167-5.602l0.004-1.88c0,0-3.12-4.185-3.613-6.715
	c0,0-0.639-2.097,0.468-3.044c0,0-0.566-4.189,0.79-5.781C6.253,3.561,6.477,2.385,5.871,1.771z"/>
<path fill="#33BBEE" stroke="#464646" stroke-miterlimit="10" d="M17.318,1.794c0,0,0.503-0.845,1.481-0.564
	c0,0,9.372-2.929,8.188,8.168c0,0,1.397,0.084,0.392,3.219c-0.801,2.501-2.705,5.128-4.004,6.519l-0.012,1.879
	c0,0,6.628,1.337,8.263,5.203V28.6l-19.624,0.027v-2.529c0-1.991,3.328-4.725,5.788-5.047l0.004-1.878c0,0-0.849-4.244-1.332-6.771
	c0,0-0.625-2.096,0.458-3.042c0,0-0.554-4.185,0.773-5.776C17.693,3.583,17.912,2.408,17.318,1.794z"/>
<path fill="#33BBEE" stroke="#464646" stroke-miterlimit="10" d="M11.111,1.422c0,0,0.566-0.95,1.666-0.634
	c0,0,10.542-3.295,9.21,9.188c0,0,1.571,0.094,0.441,3.621c-0.901,2.813-3.043,5.768-4.504,7.333l-0.014,2.114
	c0,0,8.478,1.507,9.295,5.852v2.678L5.131,31.605V28.76c0.755-2.987,6.223-5.385,8.99-5.748l0.005-2.113
	c0,0-3.434-4.703-3.977-7.546c0,0-0.703-2.357,0.515-3.421c0,0-0.623-4.708,0.869-6.497C11.532,3.435,11.779,2.112,11.111,1.422z"/>
<rect fill="none" width="32" height="32"/>
</svg>
