<?xml version="1.0" encoding="utf-8"?>
<!-- Generator: Adobe Illustrator 17.0.0, SVG Export Plug-In . SVG Version: 6.00 Build 0)  -->
<!DOCTYPE svg PUBLIC "-//W3C//DTD SVG 1.1 Basic//EN" "http://www.w3.org/Graphics/SVG/1.1/DTD/svg11-basic.dtd">
<svg version="1.1" baseProfile="basic" id="图层_1"
	 xmlns="http://www.w3.org/2000/svg" xmlns:xlink="http://www.w3.org/1999/xlink" x="0px" y="0px" width="32px" height="32px"
	 viewBox="0 0 32 32" xml:space="preserve">
<path fill="#33BBEE" stroke="#6E6E6E" stroke-width="0.25" stroke-miterlimit="10" d="M8.729,1.159c0,0,0.813-0.968,2.395-0.646
	c0,0,15.157-3.356,13.242,9.36c0,0,2.259,0.096,0.634,3.689c-1.296,2.866-4.375,5.876-6.476,7.47l-0.02,2.153
	c0,0,12.189,1.535,13.364,5.962v2.729L0.13,31.906v-2.899c1.085-3.043,8.948-5.486,12.926-5.855L13.062,21
	c0,0-4.938-4.792-5.719-7.688c0,0-1.011-2.401,0.74-3.485c0,0-0.896-4.796,1.25-6.619C9.333,3.208,9.688,1.861,8.729,1.159z"/>
</svg>
